<?xml version="1.0" encoding="utf-8"?>
<!-- Generator: Adobe Illustrator 23.0.1, SVG Export Plug-In . SVG Version: 6.00 Build 0)  -->
<svg version="1.1" id="behance" xmlns="http://www.w3.org/2000/svg" xmlns:xlink="http://www.w3.org/1999/xlink" x="0px" y="0px"
	 viewBox="0 0 64 64" style="enable-background:new 0 0 64 64;" xml:space="preserve">
<style type="text/css">
	.st0{fill:#646464;}
</style>
<path class="st0" d="M25.2,34c-0.6-0.3-1.5-0.4-2.6-0.4H17v6.8h5.5c1.1,0,2-0.1,2.6-0.4c1.1-0.6,1.7-1.6,1.7-3.2
	C26.9,35.4,26.4,34.5,25.2,34z"/>
<path class="st0" d="M25.3,28.7c0.7-0.4,1.1-1.2,1.1-2.3c0-1.2-0.5-2-1.4-2.4c-0.8-0.3-1.8-0.4-3.1-0.4H17v5.6h5.5
	C23.7,29.3,24.6,29.1,25.3,28.7z"/>
<path class="st0" d="M0,0v64h64V0H0z M38.4,20.3h10.5v2.6h0H38.4V20.3z M31.3,41.2c-0.5,0.8-1.1,1.5-1.8,2c-0.8,0.6-1.8,1.1-2.9,1.3
	c-1.1,0.2-2.4,0.3-3.7,0.3H11V19.2h12.6c3.2,0.1,5.4,1,6.8,2.7c0.8,1.1,1.2,2.4,1.2,3.9c0,1.6-0.4,2.8-1.2,3.8c-0.4,0.5-1.1,1-2,1.5
	c1.3,0.5,2.3,1.2,3,2.3c0.7,1,1,2.3,1,3.7C32.4,38.6,32,40,31.3,41.2z M53,36.2H39.4c0.1,1.8,0.7,3.1,2,3.9c0.7,0.5,1.6,0.7,2.7,0.7
	c1.1,0,2-0.3,2.7-0.8c0.4-0.3,0.7-0.7,1-1.3h5c-0.1,1.1-0.7,2.2-1.8,3.3c-1.7,1.8-4,2.7-7,2.7c-2.5,0-4.7-0.8-6.6-2.3
	c-1.9-1.5-2.9-4-2.9-7.3c0-3.2,0.9-5.6,2.6-7.3c1.7-1.7,4-2.5,6.7-2.5c1.6,0,3.1,0.3,4.4,0.9c1.3,0.6,2.4,1.5,3.2,2.7
	c0.8,1.1,1.3,2.4,1.5,3.8C53,33.4,53,34.6,53,36.2z"/>
<path class="st0" d="M43.7,29.1c-1.3,0-2.2,0.4-2.9,1.1c-0.7,0.7-1.1,1.6-1.3,2.8h8.4v0c-0.1-1.3-0.5-2.2-1.3-2.9
	C45.8,29.5,44.9,29.1,43.7,29.1z"/>
</svg>
