<?xml version="1.0" encoding="utf-8"?>
<!-- Generator: Adobe Illustrator 23.0.1, SVG Export Plug-In . SVG Version: 6.00 Build 0)  -->
<svg version="1.1" id="facebook" xmlns="http://www.w3.org/2000/svg" xmlns:xlink="http://www.w3.org/1999/xlink" x="0px" y="0px"
	 viewBox="0 0 64 64" style="enable-background:new 0 0 64 64;" xml:space="preserve">
<style type="text/css">
	.st0{fill:#6B7EC7;}
	.st1{fill:#FFFFFF;}
</style>
<rect class="st0" width="64" height="64"/>
<path id="Facebook" class="st1" d="M28.4,21.2c0,0.9,0,4.9,0,4.9h-3.6v6h3.6v17.7h7.3V32h4.9c0,0,0.5-2.9,0.7-6c-0.6,0-5.6,0-5.6,0
	s0-3.5,0-4.1c0-0.6,0.8-1.4,1.6-1.4c0.8,0,2.5,0,4,0c0-0.8,0-3.6,0-6.2c-2.1,0-4.4,0-5.4,0C28.2,14.3,28.4,20.3,28.4,21.2z"/>
</svg>
