<?xml version="1.0" encoding="utf-8"?>
<!-- Generator: Adobe Illustrator 23.0.1, SVG Export Plug-In . SVG Version: 6.00 Build 0)  -->
<svg version="1.1" id="Layer_2" xmlns="http://www.w3.org/2000/svg" xmlns:xlink="http://www.w3.org/1999/xlink" x="0px" y="0px"
	 viewBox="0 0 120 56" style="enable-background:new 0 0 120 56;" xml:space="preserve">
<style type="text/css">
	.st0{fill:#FFFFFF;}
</style>
<path class="st0" d="M119.6,20.7c-2.2-0.6-3.2-0.8-3.9,0.8c-0.5,0.8-0.9,1.6-1.3,2.4c-1,1.9-2.1,3.8-3.5,5.5c0-0.9,0.1-1.8,0.2-2.6
	c0-0.4,0-0.7,0.1-1.1c0.1-0.9,0.2-1.8-0.2-2.7c-0.1-0.2-0.2-0.3-0.4-0.3c-0.4-0.1-0.9-0.1-1.3,0.2c0,0,0,0-0.1,0.1
	c-0.1-0.2-0.2-0.3-0.5-0.4c-0.9-0.1-1.6,0.1-2.2,0.5c-0.5,0.4-0.9,1-0.9,1.7c-0.1,0.7-0.2,1.4-0.4,2l-0.1,0.8
	c-0.5,0.8-1,1.8-1.6,2.9c-0.8,1.6-2,3.8-2.6,4.5c0-0.1,0-0.2,0-0.4c0-2,0-5.4,0.1-7.4c0.2-3.9,0.5-7.7,0.8-11.4
	c0.1-0.7,0.2-1.5,0.3-2.3c0.8,0,1.6-0.1,2.5-0.1l1.8-0.1c0.2,0,0.3-0.1,0.4-0.2c0.1-0.1,0.1-0.3,0.1-0.4c-0.3-1.3-1.3-2-3-2
	c0,0,0,0,0,0c-0.5,0-1,0-1.5,0c0-0.3,0.1-0.7,0.1-1c0.1-0.6,0.2-1.8-1.4-2c-0.1,0-0.2,0-0.3,0c-0.4,0.2-0.8,0.4-1.2,0.6
	c-0.4,0.2-0.8,0.4-1.3,0.6C98,8.9,97.9,9,97.8,9.1c0,0.1-0.1,0.1-0.1,0.2c-0.1,0.2-0.2,0.4-0.2,0.6c-0.1,0.2-0.1,0.4-0.2,0.6
	c0,0-0.1-0.1-0.2-0.1c-0.2-0.1-0.5,0-0.6,0.2c-1.4,0-2.9,0.1-4.3,0.1c-1.9,0.1-3.8,0.3-5.7,0.5c-1,0.1-1.9,0.2-2.9,0.3
	c-1,0.1-1,0.1-1.2-0.9l-1-3.5c-0.1-0.2-0.2-0.3-0.4-0.4c-0.2,0-0.4,0-0.5,0.2c-0.8,1-1.5,2.7-1.9,5.2c-1.1,0.2-2.5,0.5-3.8,0.7
	c-0.9,0.2-1.7,0.3-2.2,0.4c-0.8,0.2-1.5,0.3-2.3,0.5c-1.5,0.3-3.1,0.7-4.6,1c-0.5,0.1-0.9,0.4-1.4,0.6l-0.4,0.2
	c-0.1,0.1-0.2,0.2-0.3,0.3c0,0.1,0,0.3,0.1,0.4c1.1,1.6,1.4,1.8,3.2,1.4l1.6-0.3c2.8-0.6,5.7-1.1,8.6-1.7c0.1,0,0.1,0,0.2,0
	c-1,2.9-1.8,7.4-2.2,11.8c-0.3,0.3-0.5,0.7-0.8,1.1c-0.7,0.9-1.4,1.8-2,2.6c-1.3,1.5-1.9,1.7-2.1,1.7c-0.2,0-0.6-0.2-1.1-1.7
	c-0.5-1.2-0.7-2.4-0.8-3.9c0-1.4-0.2-2.2-0.8-2.7c-0.7-0.6-1.7-0.6-2.7-0.5c-1.7,0.2-3.2,1-4.8,2.3c-1.5,1.3-2.9,2.7-4.5,4.3
	c0.1-1.4,0.2-2.7,0.3-4c0.1-1.2,0.2-2.4,0.3-3.6c0-0.5,0.1-1.7-0.5-2.3c-0.2-0.3-0.6-0.4-0.9-0.4c-0.2,0-0.5,0-0.8,0.2
	c-0.1-0.2-0.3-0.5-0.4-0.7c-0.1-0.2-0.2-0.3-0.4-0.3c-0.2,0-0.4,0-0.5,0.1c-0.2,0.2-0.4,0.3-0.6,0.5c-0.5,0.3-0.9,0.7-1,1.1
	c-0.4,1.6-0.7,2.9-0.9,4.1c-0.5,0-1,0-1.5-0.1c-0.3,0-0.6,0-0.9,0c0-1.3-0.1-4.5-2.1-6.6c-1-1-2.3-1.6-3.9-1.7
	c-2.3-0.1-3.7,0.9-4.3,1.7c-1.2,1.4-1.4,3.4-1.1,4.9c-1.6,0.4-3,1.4-3.9,3.1c-0.4,0.8-0.7,1.6-0.8,2.5c-0.6-1.2-1.8-1.6-2.6-1.7l0,0
	c-0.9-0.2-2-0.2-3.3-0.1c-1.8,0.1-3.7,0.2-5.6,0.3c0-0.1,0-0.2,0-0.3c0.5-1.6,0.9-3.3,1.4-4.9c0.6-2.2,1.2-4.3,1.8-6.5
	c0.1-0.4,0.4-0.8,0.8-1.1c5.2-3.5,11.4-7.4,18.5-10c0.2-0.1,0.5-0.2,0.6-0.3c1.6,0.8,2.7-0.2,3.5-0.9l0.1-0.1
	c0.2-0.2,0.2-0.4,0.1-0.6c-1.5-2.4-2.2-3-5.1-2.3C41.3,1,40.6,1.2,40,1.4c0.8-0.6,0.7-0.8,0.6-1.1c-0.4-0.6-1.6-0.2-1.7-0.2
	c-1.8,0.7-6.3,2.7-9.3,4.1l-1.9,0.8c-2.5,1.3-4.8,2.6-7.3,4l-0.8,0.5c-6.6,3.6-12.3,7.9-16.9,13c-0.5,0.5-0.9,1.1-1.4,1.6
	c-0.2,0.3-0.5,0.6-0.8,1c-1.2,2.2-0.7,3.8,1.6,4.8c0.8,0.3,1.7,0.5,2.5,0.8l0.3,0.1C5.8,30.9,6.5,30.5,7,30c0.5-0.4,0.7-0.9,0.5-1.3
	c0-0.3-0.1-0.5-0.1-0.7c-0.1-0.6-0.1-0.8,0-1c0.2-0.2,0.6-0.5,0.4-1c-0.3-0.4-0.8-0.3-1.8,0c-0.1,0-0.3,0.1-0.5,0.1
	c0.9-0.9,3.5-2.9,10-7.4c-0.3,1.2-0.4,1.7-0.3,1.9c-0.2,0.8-0.4,1.5-0.5,2.2c-0.4,1.8-0.9,3.5-1.2,5.2c-0.2,0.5-0.5,0.6-1.1,0.8
	c-0.3,0.1-0.6,0.2-0.9,0.3c-0.9,0.2-1.8,0.5-2.6,0.8c-0.6,0.2-2.4,0.9-1.9,2.3c0.1,0.6,0.9,1.2,1.3,1.3c0.3,0.1,1.1,0.6,1.9,0.5
	c0.2,0,0.4-0.1,0.7-0.2c0.2-0.1,0.3-0.1,0.6-0.2c0.3-0.1,0.6-0.2,1-0.4l0,0.3c-0.2,1.6-0.3,2.9-0.3,4.3c-0.1,1.4,0,2.8,0.3,3.9
	c0.2,0.8,0.9,1.6,1.5,2c0.6,0.3,1.3,0.5,1.9,0.6c0.3,0.1,0.7,0.1,1,0.2c0.1,0,0.1,0,0.2,0c0.1,0,0.2,0,0.3-0.1
	c0.1-0.1,0.2-0.3,0.2-0.4c-0.3-3.8,0.5-7.3,1.4-10.9c0.1-0.5,0.2-1,0.3-1.5c3.9-0.4,7.9-0.9,12.2-1.5c0.1,0,0.1,0,0.2-0.1
	C31.5,32.1,32,34,33,35.5c1.9,2.5,4.8,2.5,7.2,2.3c3.2-0.3,6.2-5.9,7-9.1l0.2,0c0.6-0.1,1.5-0.1,2.3-0.2c-0.1,0.7-0.1,1.3-0.2,1.9
	c-0.2,2.5,0.4,4.3,1.8,5.4c1.2,1,3,1.4,5.3,1.1c0.2,0,0.3-0.1,0.4-0.3c1.6-2.8,3.7-5.2,6.2-7.3c0.2,2,1.1,4.3,1.9,5.4
	c2.1,2.9,4.6,2.2,6.7,1.2c0.9-0.4,2.2-1.6,3.1-2.5c0,0.4,0,0.8,0.1,1.2c0.1,1.1,0.4,2.1,0.9,3.1c0.5,1,1.6,1.6,2.8,1.7
	c1.3,0.1,2.5-0.5,3.3-1.5c0.4-0.5,0.7-1,1-1.6l2.7-6c0.5,1.1,0.8,1.9,1,2.3l-0.1,0.1c-1.5,2-3.1,4.1-4.1,6.9c-1.1,3.3-0.6,5.9,1.3,7
	c1.9,1.1,4.7,0.5,7.3-1.5c2.6-2,3.8-5.2,3.2-9c-0.2-1.1-0.6-2.5-1.3-4.2c0.6-0.5,1.3-1.1,2-1.8c0,0.1,0,0.1,0,0.2
	c0.6,3.8,1.5,7.9,3.7,8.8c0.5,0.2,1.4,0.3,2.4-0.3c1.1-0.6,2.4-2.5,4-5.5c0.2,0.8,0.8,1.3,1.7,1.6c1.5,0.4,3.7,0,4.7-0.8
	c0.9-0.7,1.7-1.8,2.4-2.8c0.1-0.1,0.2-0.3,0.3-0.4c-0.2,1.2-0.4,2.5-0.6,3.9c-0.8,5.1-1.6,10.9-3.8,16.3c-1-3.3-0.3-6.7,0.5-10.2
	c0.2-1,0.5-2.1,0.6-3.1c0-0.3-0.1-0.5-0.4-0.6c-2.1-0.4-2.8-0.2-3.4,1.6c-1.2,3.5-1.7,6.9-1.5,10.2c0.1,1.5,0.6,3,1.2,4.7
	c0.8,1.7,1.8,2.3,3.3,2.3c0.4,0,0.8,0,1.3-0.1c4.5-0.9,6-11.3,7.3-22.9c0.2-2,0.4-3.7,0.6-5c0.2-1.7,0.4-3.4,0.5-5
	c0-0.6,0.1-1.3,0.1-1.9C120,20.9,119.9,20.7,119.6,20.7z M39.8,33.9c-1-0.4-1.5-1.3-1.8-1.9c-0.6-1.5-0.5-3.3,0.3-4.9
	c1.1,1,3.1,1.5,4.8,1.6C42.6,30.4,41.4,32.6,39.8,33.9z M43.7,25.4c-2.2,0-3.6-1.5-4-2.9c-0.4-1.3,0.4-2.7,1.4-3.1
	c0.1,0,0.2-0.1,0.3-0.1c0.6,0,1.1,0.6,1.4,1.1C43.5,21.8,43.8,23.7,43.7,25.4z M87.5,42c-1.3,1.9-1.9,2-1.8,2
	c-0.2-0.1-0.5-1.1,0.1-3.4c0.5-1.7,1.5-3.7,2.4-5C88.8,37.6,88.7,40.1,87.5,42z M94.8,26.6c-0.4,0.3-0.8,0.6-1.1,0.9
	c-0.5,0.4-1.1,0.8-1.8,1.4c-0.3-0.6-0.6-1.4-1-2.1c-0.4-1-0.9-1.9-1.3-2.8c1.4-0.6,2-1.6,2.5-2.7l0.2-0.3c0.1-0.2,0.1-0.3,0-0.5
	c-0.1-0.2-0.4-0.2-0.6-0.3c-0.3-0.1-0.5,0-0.7,0.1c-1.7,0.8-2.9,1-4.1-0.4c-0.3-0.4-0.6-0.6-1-0.5c-0.6,0-1,0.5-1.3,1
	c-0.1,0.1-0.2,0.2-0.3,0.3c-1,1.4-0.8,4.4-0.1,6.2l-0.5,1.1c-0.9,1.8-2.7,5.4-3.7,6.6c0-6,0.8-10.2,1.9-16c0.2-1,0.4-2.1,0.6-3.3
	c2.8-0.3,5.9-0.7,9-1c1.4-0.2,2.7-0.3,4-0.5C94.7,17.6,94.6,22.9,94.8,26.6z"/>
</svg>
