<?xml version="1.0" encoding="utf-8"?>
<!-- Generator: Adobe Illustrator 23.0.1, SVG Export Plug-In . SVG Version: 6.00 Build 0)  -->
<svg version="1.1" id="pinterest" xmlns="http://www.w3.org/2000/svg" xmlns:xlink="http://www.w3.org/1999/xlink" x="0px" y="0px"
	 viewBox="0 0 64 64" style="enable-background:new 0 0 64 64;" xml:space="preserve">
<style type="text/css">
	.st0{fill:#DF6966;}
</style>
<path class="st0" d="M0,0v64h64V0H0z M52,39.8c-4.6,11.6-16.8,15.7-25.9,12.8c0.7-1.7,1.5-3.4,2-5.1c0.6-1.7,0.9-3.6,1.4-5.2
	c0.4,0.3,0.7,0.6,1.1,0.9c2,1.6,4.3,1.8,6.7,1.2c2.6-0.6,4.6-2.1,6.1-4.2c2.5-3.6,3.4-7.7,2.8-11.9c-0.6-4.4-3.3-7.6-7.4-9.2
	c-6.2-2.4-12.1-1.6-17.1,2.8c-3.9,3.4-5.2,9.2-3.3,13.8c0.7,1.6,1.7,2.8,3.2,3.5c0.8,0.4,1.1,0.2,1.4-0.6c0-0.1,0-0.1,0.1-0.2
	c0.4-1.2,0.3-2.1-0.4-3.2c-1.4-2-1.2-4.4-0.5-6.6c1.3-4.3,5.1-7.1,9.6-7.2c1.2,0,2.4,0.1,3.6,0.4c3.5,0.8,5.7,3.5,5.9,7.1
	c0.2,2.8-0.3,5.6-1.5,8.2c-0.6,1.3-1.4,2.4-2.6,3.2c-1.1,0.8-2.4,1.1-3.7,0.7c-1.8-0.5-2.9-2.2-2.4-4c0.5-1.9,1.1-3.8,1.6-5.7
	c0.2-0.8,0.3-1.7,0.2-2.5c-0.2-2.2-2.3-3.3-4.3-2.2c-1.4,0.8-2.1,2.1-2.4,3.5c-0.3,1.5-0.2,3,0.3,4.5c0.1,0.3,0.1,0.7,0,1
	c-0.9,3.9-1.9,7.9-2.7,11.8c-0.2,1.2-0.2,2.4-0.3,3.6c0,0.2,0,0.5,0,0.8C14,47.8,7.8,36.5,11.8,25c3.9-11.4,16.5-17.3,27.8-13.1
	C50.8,16,56.4,28.6,52,39.8z"/>
</svg>
